<?xml version="1.0" standalone="no"?>
<!DOCTYPE svg PUBLIC "-//W3C//DTD SVG 20010904//EN"
 "http://www.w3.org/TR/2001/REC-SVG-20010904/DTD/svg10.dtd">
<svg version="1.0" xmlns="http://www.w3.org/2000/svg"
 width="1280.000000pt" height="939.000000pt" viewBox="0 0 1280.000000 939.000000"
 preserveAspectRatio="xMidYMid meet">
<g transform="translate(0.000000,939.000000) scale(0.100000,-0.100000)"
fill="#000000" stroke="none">
<path d="M906 8195 c-12 -12 -14 -30 -10 -78 2 -34 13 -231 24 -437 11 -206
29 -541 40 -745 41 -738 60 -1097 80 -1460 45 -833 70 -1292 81 -1500 6 -121
14 -242 18 -270 6 -47 8 -50 37 -53 17 -2 298 27 625 63 728 80 653 74 657 50
1 -11 -45 -186 -103 -390 -77 -271 -105 -385 -105 -426 0 -33 -5 -61 -12 -67
-7 -5 -51 -15 -98 -21 -432 -60 -849 -137 -957 -176 -78 -28 -103 -49 -103
-87 0 -61 87 -78 560 -108 593 -39 717 -58 878 -138 107 -53 179 -110 169
-135 -10 -25 -119 -53 -302 -77 -186 -24 -308 -46 -340 -62 -69 -36 -83 -87
-37 -136 54 -58 252 -140 617 -257 199 -64 235 -78 224 -90 -3 -2 -72 -14
-155 -26 -82 -11 -153 -26 -157 -32 -8 -13 -5 -62 23 -327 10 -96 22 -212 26
-257 3 -46 12 -90 18 -99 7 -8 354 -191 771 -405 l760 -390 255 45 c612 108
2425 430 2625 466 121 22 641 114 1155 205 514 91 958 170 986 176 l51 10 18
147 c9 81 16 157 14 170 -4 21 -119 71 -1037 453 -569 236 -1042 429 -1053
429 -11 0 -930 -122 -2044 -270 -1114 -149 -2037 -270 -2053 -270 -31 0 -491
144 -692 217 -221 80 -326 136 -314 168 8 20 86 41 222 60 294 40 337 47 389
67 70 26 93 49 93 93 0 45 -44 89 -148 150 -182 107 -321 132 -917 170 -520
33 -593 48 -452 94 91 29 228 57 506 101 384 61 477 73 495 67 9 -4 16 -18 16
-32 0 -23 37 -44 492 -271 l493 -246 734 76 c404 42 738 79 743 82 14 9 10
240 -4 252 -12 9 -359 107 -983 278 -214 59 -245 69 -245 82 0 4 41 21 91 36
l91 28 86 -40 c250 -118 405 -162 947 -271 380 -76 481 -106 528 -159 41 -45
-21 -106 -247 -240 -190 -114 -216 -134 -216 -173 0 -38 16 -45 152 -69 184
-31 394 -43 544 -30 173 14 208 21 504 95 140 35 290 68 333 74 178 25 444 10
987 -55 344 -41 623 -53 776 -35 54 7 187 30 294 52 107 22 238 46 290 54 126
19 341 29 359 17 17 -12 8 -57 -14 -66 -8 -3 -189 -28 -402 -56 -504 -65 -467
-59 -451 -77 10 -12 9 -17 -5 -28 -23 -17 -21 -30 6 -42 299 -133 1769 -753
1786 -753 12 0 485 108 1049 239 565 132 1071 250 1125 262 77 18 97 26 97 40
0 9 -8 20 -17 24 -17 6 -17 7 1 20 15 11 16 16 5 19 -8 3 -408 123 -889 267
-759 228 -883 262 -934 260 -55 -2 -63 1 -130 47 -183 126 -347 171 -578 158
-136 -8 -277 -40 -364 -84 -76 -38 -170 -110 -212 -162 -35 -42 -52 -50 -52
-25 0 13 -22 15 -136 15 -154 0 -261 -14 -537 -70 -106 -21 -232 -44 -282 -51
-148 -19 -454 -6 -795 35 -458 54 -530 60 -760 60 -239 1 -218 4 -572 -85
-261 -65 -373 -85 -541 -95 -138 -8 -357 10 -519 42 -16 3 -28 12 -28 19 0 7
48 41 108 76 285 166 360 239 332 324 -28 84 -147 127 -590 215 -338 68 -491
104 -655 157 -135 43 -295 117 -295 135 0 8 12 21 28 30 15 9 48 35 74 57 25
23 49 41 52 41 3 0 6 -26 6 -59 0 -35 5 -63 13 -69 17 -14 2815 -695 2851
-694 55 1 2091 305 2102 314 7 5 13 100 18 275 3 148 11 417 16 598 5 182 14
497 20 700 6 204 15 525 20 715 5 190 14 514 20 720 6 206 15 521 20 700 24
820 33 1220 29 1225 -3 3 -334 27 -735 55 -401 28 -893 62 -1094 76 -201 14
-396 25 -435 26 -38 0 -270 -23 -515 -51 -245 -28 -521 -60 -615 -71 -98 -11
-173 -16 -179 -10 -4 4 -14 94 -20 199 -7 105 -16 194 -19 198 -7 6 -151 10
-1162 33 -269 6 -681 15 -915 20 -234 5 -636 14 -895 20 -258 6 -649 15 -869
20 -564 14 -641 13 -660 -5z m2994 -4439 c0 -213 18 -180 -159 -301 -63 -43
-130 -92 -148 -108 -67 -59 -81 -124 -38 -175 14 -17 25 -32 25 -35 0 -6 -119
-47 -137 -47 -18 0 -17 24 12 168 13 70 47 241 74 381 27 139 54 258 61 265
11 11 275 45 298 38 9 -3 12 -49 12 -186z m8 -310 c8 -69 -103 -209 -204 -259
l-43 -20 -35 27 c-45 34 -45 56 -3 99 43 42 258 188 272 184 5 -2 11 -16 13
-31z"/>
</g>
</svg>
